<svg xmlns="http://www.w3.org/2000/svg" xmlns:xlink="http://www.w3.org/1999/xlink" id="Capa_1" x="0px" y="0px" width="595.279px" height="841.891px" viewBox="0 0 595.279 841.891" xml:space="preserve"><path d="M389.861,242.787l79.946-86.061c7.727-8.268,7.31-21.412-1.09-29.127l-27.508-25.613c-8.269-7.715-21.406-7.328-29.127,1.07 l-79.952,85.904c-7.721,8.4-7.321,21.412,1.084,29.141l8.679,8.125l-71.951,77.506v-6.775c0-110.18-167.631-110.18-167.631,0v58.529 c-31.567,18.43-52.843,52.592-52.843,91.619v193.217c0,9.084,13.697,9.084,13.697,0V447.105c0-31.039,15.572-58.541,39.146-75.203 v120.861c0,23.703,19.376,43.08,43.093,43.08h81.577c23.585,0,42.961-19.377,42.961-43.08V368.373 c26.55,16.127,44.438,45.396,44.438,78.738v193.217c0,9.084,13.822,9.084,13.822,0V447.111c0-41.188-23.853-76.959-58.26-94.447 v-28.729l82.113-88.197l8.661,8.127C368.99,251.443,382.134,251.055,389.861,242.787z M256.119,318.52l-34.563,37.133 l-73.713,36.176c-4.334,1.643-6.096,9.09-1.352,12.209l42.408,39.406c3.512,4.621,10.565,2.852,12.054-2.291l30.765-76.148 l24.395-26.299c0,51.359,0,102.721,0.006,154.076c0,16.139-13.149,29.281-29.139,29.281h-81.577 c-16.127,0-29.265-13.143-29.265-29.281V296.975c0-92.143,139.98-92.143,139.98,0V318.52z"></path><path d="M545.812,496.854c0-25.479-17.477-47.039-40.919-53.26V277.867c0-13.959-11.513-25.49-25.466-25.49h-47.7 c-13.966,0-25.479,11.525-25.479,25.49v165.727c-23.572,6.221-40.919,27.781-40.919,53.26v126.818c0,13,10.566,23.561,23.442,23.561 H522.37c12.876,0,23.442-10.561,23.442-23.561h-0.001V496.854z M420.059,277.861c0-6.369,5.149-11.65,11.662-11.65h47.699 c6.37,0,11.65,5.281,11.65,11.65v163.82h-71.012V277.861z M532.133,623.672c0,5.279-4.465,9.756-9.757,9.762H388.772 c-5.286,0-9.763-4.477-9.763-9.762V496.854c0-22.764,18.703-41.33,41.33-41.33h70.332c22.758,0,41.462,18.566,41.462,41.33V623.672z "></path><path d="M431.852,469.201h-11.513c-15.037,0-27.502,12.467-27.502,27.658v115.973c0,9.084,13.686,9.084,13.686,0V496.854 c0-7.459,6.369-13.842,13.816-13.842h11.513C441.067,483.012,441.067,469.201,431.852,469.201z"></path></svg>