<svg xmlns="http://www.w3.org/2000/svg" xmlns:xlink="http://www.w3.org/1999/xlink" id="Capa_1" x="0px" y="0px" width="595.279px" height="841.891px" viewBox="0 0 595.279 841.891" xml:space="preserve"><g>	<path d="M536.263,503.838h-91.534c-13.931-23.61-21.851-30.976-20.32-53.095c0.561-31.25-1.783-67.909-17.627-89.682  c-4.923-8.009-9.176-14.926-10.553-29.976c-1.178-12.877-4.409-43.726-9.604-91.692c-1.031-7.464-12.009-6.461-11.464,1.242  c5.188,47.901,8.412,78.687,9.584,91.501c1.623,17.739,7.008,26.497,12.214,34.964c14.899,20.242,16.326,55.768,15.918,83.514  c-0.085,7.608-0.042,13.098,1.032,18.498c-7.912-9.732-10.655-16.355-12.073-28.759c-1.678-12.037-2.727-20.157-6.919-38.259  c-6.98-29.668-16.021-40.423-23.997-49.913c-6.05-7.197-11.274-13.412-14.851-28.096c-8.436-34.621-50.389-193.606-52.172-200.362  c-1.966-6.976-12.758-4.924-11.149,2.943c1.782,6.747,43.715,165.653,52.117,200.148c3.688,15.144,9.214,23.062,14.823,29.902  c5.373,6.34,10.964,12.98,14.666,20.665c4.329,8.902,6.496,15.723,9.338,27.353c4.135,17.705,5.337,27.283,6.671,36.834  c1.729,18.485,8.146,28.255,25.815,48.168c3.799,4.566,7.463,9.242,10.854,14.102H307.149c-1.135-5.021-2.219-10.441-3.315-15.995  c-7.713-39.32-72.363-38.495-72.793-81.514c-0.463-21.743,6.859-30.282,13.941-38.538c7.587-8.847,15.432-17.994,10.193-39.213  c-8.882-35.987-92.821-188.897-102.364-206.214c-1.537-2.788-5.042-3.802-7.831-2.267c-2.788,1.537-3.804,5.043-2.267,7.832  c3.776,6.854,92.593,168.263,101.27,203.411c3.815,15.456-0.786,20.821-7.75,28.942c-6.545,7.631-14.447,16.856-16.322,35.529  c-9.577-13.309-28.699-32.736-40.983-27.209l-19.94-33.705c6.466-6.758,7.951-17.259,2.96-25.694l-26.695-45.124  c-6.402-10.946-20.904-13.657-31.16-6.426c-4.953-3.469-9.356-4.101-13.126-1.871c-16.754,10.906,0.828,42.531,10.125,58.848  c7.13,12.052,17.732,27.659,28.396,34.906l21.705,36.688c-0.833,8.801,1.508,26.976,20.995,59.913  c13.156,21.45,31.171,48.32,51.399,49.228c9.2-0.296,15.138-5.278,14.869-15.377c7.008-1.984,13.148-8.437,8.857-28.703  c16.092,11.129,42.021,20.499,45.214,38.784c0.932,4.724,1.857,9.354,2.817,13.765H63.524c-3.183,0-5.765,2.582-5.765,5.766  c-1.17,16.193,10.515,30.693,26.438,32.517l23.567,45.751c4.965,9.637,14.784,15.624,25.625,15.624h333.009  c10.842,0,20.66-5.986,25.626-15.624l23.567-45.751c14.873-1.797,26.438-14.498,26.438-29.848v-2.668  C542.029,506.42,539.447,503.838,536.263,503.838z M183.724,379.232c12.196,2.21,28.354,24.051,36.802,38.309  c0.208,0.351,0.411,0.701,0.612,1.051c1.772,6.806,4.891,12.531,8.86,17.486c9.427,21.906,7.447,31.77,6.022,32.613  c-2.266,0.41-5.516-1.579-7.864-3.117c-10.45-7.604-17.989-17.195-26.547-30.272c-8.262-13.089-15.662-28.257-18.668-42.249  c-1.345-6.046-1.453-13.907,0.782-13.821H183.724z M226.552,483.054c-5.116,2.919-13.12-3.216-17.45-7.147  c-17.516-14.284-51.103-72.69-46.261-89.841c0.253-1.371,0.002-2.788-0.708-3.988l-23.411-39.574  c-0.476-0.804-1.14-1.48-1.936-1.972c-12.439-6.739-36.241-46.281-39.991-62.671c-1.646-6.131-1.492-10-0.542-11.546  c0.548,0.288,1.433,0.853,2.686,1.92l11.657,23.243c1.012,2.017,3.045,3.182,5.158,3.182c4.157,0.09,7.126-4.646,5.148-8.351  l-9.748-19.437c4.713-3.219,11.267-1.878,14.171,3.078l26.695,45.124c2.794,4.507,1.152,10.908-3.468,13.513  c-2.74,1.622-3.647,5.157-2.026,7.897l24.655,41.674c-6.109,28.22,31.41,88.727,55.604,99.914c0.429,3.488-0.112,4.748-0.235,4.979  L226.552,483.054z M511.963,530.806c-2.159,0-4.136,1.206-5.125,3.125l-25.064,48.658c-2.979,5.783-8.87,9.375-15.375,9.375  h-333.01c-6.505,0-12.396-3.592-15.375-9.375l-25.064-48.658c-0.989-1.919-2.967-3.125-5.125-3.125  c-9.166,0-16.798-6.687-18.277-15.438H530.24C528.761,524.119,521.129,530.806,511.963,530.806z"></path>	<path d="M412.445,298.308c23.057,0,37.954,14.898,37.954,37.955c0,3.183,2.582,5.765,5.766,5.765c3.183,0,5.765-2.582,5.765-5.765  c0-23.057,14.898-37.955,37.955-37.955c3.183,0,5.765-2.582,5.765-5.765c0-3.183-2.582-5.765-5.765-5.765  c-23.057,0-37.955-14.898-37.955-37.955c0-3.183-2.582-5.765-5.765-5.765c-3.184,0-5.766,2.582-5.766,5.765  c0,23.057-14.897,37.955-37.954,37.955C404.839,287.031,404.793,298.038,412.445,298.308z M456.164,273.9  c4.21,8.059,10.583,14.432,18.642,18.643c-8.059,4.21-14.432,10.583-18.642,18.643c-4.211-8.059-10.584-14.432-18.643-18.643  C445.58,288.333,451.953,281.959,456.164,273.9z"></path>	<path d="M498.09,413.784c0,16.263-10.508,26.77-26.77,26.77c-7.613,0.256-7.646,11.263,0,11.53c16.262,0,26.77,10.508,26.77,26.769  c0,3.184,2.582,5.765,5.765,5.765s5.765-2.581,5.765-5.765c0-16.262,10.508-26.769,26.77-26.769c3.184,0,5.766-2.582,5.766-5.766  c0-3.183-2.582-5.765-5.766-5.765c-16.262,0-26.77-10.508-26.77-26.77C509.365,406.172,498.358,406.138,498.09,413.784  L498.09,413.784z M514.698,446.318c-4.426,2.752-8.091,6.418-10.844,10.843c-2.752-4.425-6.418-8.091-10.843-10.843  c4.425-2.751,8.09-6.417,10.843-10.843C506.607,439.901,510.273,443.567,514.698,446.318z"></path>	<path d="M63.612,452.084c16.262,0,26.77,10.508,26.77,26.769c0.256,7.612,11.262,7.646,11.53,0  c0-16.262,10.508-26.769,26.769-26.769c3.184,0,5.766-2.582,5.766-5.766c0-3.183-2.582-5.765-5.766-5.765  c-16.261,0-26.769-10.508-26.769-26.77c0-3.183-2.582-5.765-5.765-5.765s-5.765,2.582-5.765,5.765  c0,16.263-10.508,26.77-26.77,26.77C56,440.81,55.966,451.816,63.612,452.084z M96.147,435.476  c2.752,4.426,6.417,8.092,10.843,10.843c-4.426,2.752-8.09,6.418-10.843,10.843c-2.752-4.425-6.417-8.091-10.843-10.843  C89.729,443.567,93.394,439.901,96.147,435.476z"></path>	<path d="M306.411,408.024c7.626-0.264,7.636-11.264,0-11.531c-14.315,0-25.96-11.645-25.96-25.96c0-3.184-2.582-5.766-5.766-5.766  c-3.183,0-5.765,2.582-5.765,5.766C268.921,391.207,285.738,408.024,306.411,408.024z"></path>	<path d="M372.639,217.09c0,3.185,2.581,5.766,5.765,5.766c7.633-0.263,7.631-11.268,0-11.53  C375.22,211.325,372.639,213.907,372.639,217.09z"></path>	<path d="M370.17,194.794c1.095,7.557,12.033,6.357,11.463-1.255c-4.174-38.131-7.582-68.979-7.582-68.979  c-0.35-3.164-3.191-5.442-6.363-5.097c-3.165,0.35-5.447,3.198-5.098,6.364C362.59,125.828,365.998,156.671,370.17,194.794z"></path></g></svg>