<svg xmlns="http://www.w3.org/2000/svg" xmlns:xlink="http://www.w3.org/1999/xlink" id="Capa_1" x="0px" y="0px" width="595.279px" height="841.891px" viewBox="0 0 595.279 841.891" xml:space="preserve"><g display="none">	<path display="inline" d="M536.263,503.838h-91.534c-13.931-23.61-21.851-30.976-20.32-53.095  c0.561-31.25-1.783-67.909-17.627-89.682c-4.923-8.009-9.176-14.926-10.553-29.976c-1.178-12.877-4.409-43.726-9.604-91.692  c-1.031-7.464-12.009-6.461-11.464,1.242c5.188,47.901,8.412,78.687,9.584,91.501c1.623,17.739,7.008,26.497,12.214,34.964  c14.899,20.242,16.326,55.768,15.918,83.514c-0.085,7.608-0.042,13.098,1.032,18.498c-7.912-9.732-10.655-16.355-12.073-28.759  c-1.678-12.037-2.727-20.157-6.919-38.259c-6.98-29.668-16.021-40.423-23.997-49.913c-6.05-7.197-11.274-13.412-14.851-28.096  c-8.436-34.621-50.389-193.606-52.172-200.362c-1.966-6.976-12.758-4.924-11.149,2.943c1.782,6.747,43.715,165.653,52.117,200.148  c3.688,15.144,9.214,23.062,14.823,29.902c5.373,6.34,10.964,12.98,14.666,20.665c4.329,8.902,6.496,15.723,9.338,27.353  c4.135,17.705,5.337,27.283,6.671,36.834c1.729,18.485,8.146,28.255,25.815,48.168c3.799,4.566,7.463,9.242,10.854,14.102H307.149  c-1.135-5.021-2.219-10.441-3.315-15.995c-7.713-39.32-72.363-38.495-72.793-81.514c-0.463-21.743,6.859-30.282,13.941-38.538  c7.587-8.847,15.432-17.994,10.193-39.213c-8.882-35.987-92.821-188.897-102.364-206.214c-1.537-2.788-5.042-3.802-7.831-2.267  c-2.788,1.537-3.804,5.043-2.267,7.832c3.776,6.854,92.593,168.263,101.27,203.411c3.815,15.456-0.786,20.821-7.75,28.942  c-6.545,7.631-14.447,16.856-16.322,35.529c-9.577-13.309-28.699-32.736-40.983-27.209l-19.94-33.705  c6.466-6.758,7.951-17.259,2.96-25.694l-26.695-45.124c-6.402-10.946-20.904-13.657-31.16-6.426  c-4.953-3.469-9.356-4.101-13.126-1.871c-16.754,10.906,0.828,42.531,10.125,58.848c7.13,12.052,17.732,27.659,28.396,34.906  l21.705,36.688c-0.833,8.801,1.508,26.976,20.995,59.913c13.156,21.45,31.171,48.32,51.399,49.228  c9.2-0.296,15.138-5.278,14.869-15.377c7.008-1.984,13.148-8.437,8.857-28.703c16.092,11.129,42.021,20.499,45.214,38.784  c0.932,4.724,1.857,9.354,2.817,13.765H63.524c-3.183,0-5.765,2.582-5.765,5.766c-1.17,16.193,10.515,30.693,26.438,32.517  l23.567,45.751c4.965,9.637,14.784,15.624,25.625,15.624h333.009c10.842,0,20.66-5.986,25.626-15.624l23.567-45.751  c14.873-1.797,26.438-14.498,26.438-29.848v-2.668C542.029,506.42,539.447,503.838,536.263,503.838z M183.724,379.232  c12.196,2.21,28.354,24.051,36.802,38.309c0.208,0.351,0.411,0.701,0.612,1.051c1.772,6.806,4.891,12.531,8.86,17.486  c9.427,21.906,7.447,31.77,6.022,32.613c-2.266,0.41-5.516-1.579-7.864-3.117c-10.45-7.604-17.989-17.195-26.547-30.272  c-8.262-13.089-15.662-28.257-18.668-42.249c-1.345-6.046-1.453-13.907,0.782-13.821H183.724z M226.552,483.054  c-5.116,2.919-13.12-3.216-17.45-7.147c-17.516-14.284-51.103-72.69-46.261-89.841c0.253-1.371,0.002-2.788-0.708-3.988  l-23.411-39.574c-0.476-0.804-1.14-1.48-1.936-1.972c-12.439-6.739-36.241-46.281-39.991-62.671  c-1.646-6.131-1.492-10-0.542-11.546c0.548,0.288,1.433,0.853,2.686,1.92l11.657,23.243c1.012,2.017,3.045,3.182,5.158,3.182  c4.157,0.09,7.126-4.646,5.148-8.351l-9.748-19.437c4.713-3.219,11.267-1.878,14.171,3.078l26.695,45.124  c2.794,4.507,1.152,10.908-3.468,13.513c-2.74,1.622-3.647,5.157-2.026,7.897l24.655,41.674  c-6.109,28.22,31.41,88.727,55.604,99.914c0.429,3.488-0.112,4.748-0.235,4.979L226.552,483.054z M511.963,530.806  c-2.159,0-4.136,1.206-5.125,3.125l-25.064,48.658c-2.979,5.783-8.87,9.375-15.375,9.375h-333.01  c-6.505,0-12.396-3.592-15.375-9.375l-25.064-48.658c-0.989-1.919-2.967-3.125-5.125-3.125c-9.166,0-16.798-6.687-18.277-15.438  H530.24C528.761,524.119,521.129,530.806,511.963,530.806z"></path>	<path display="inline" d="M412.445,298.308c23.057,0,37.954,14.898,37.954,37.955c0,3.183,2.582,5.765,5.766,5.765  c3.183,0,5.765-2.582,5.765-5.765c0-23.057,14.898-37.955,37.955-37.955c3.183,0,5.765-2.582,5.765-5.765  c0-3.183-2.582-5.765-5.765-5.765c-23.057,0-37.955-14.898-37.955-37.955c0-3.183-2.582-5.765-5.765-5.765  c-3.184,0-5.766,2.582-5.766,5.765c0,23.057-14.897,37.955-37.954,37.955C404.839,287.031,404.793,298.038,412.445,298.308z   M456.164,273.9c4.21,8.059,10.583,14.432,18.642,18.643c-8.059,4.21-14.432,10.583-18.642,18.643  c-4.211-8.059-10.584-14.432-18.643-18.643C445.58,288.333,451.953,281.959,456.164,273.9z"></path>	<path display="inline" d="M498.09,413.784c0,16.263-10.508,26.77-26.77,26.77c-7.613,0.256-7.646,11.263,0,11.53  c16.262,0,26.77,10.508,26.77,26.769c0,3.184,2.582,5.765,5.765,5.765s5.765-2.581,5.765-5.765  c0-16.262,10.508-26.769,26.77-26.769c3.184,0,5.766-2.582,5.766-5.766c0-3.183-2.582-5.765-5.766-5.765  c-16.262,0-26.77-10.508-26.77-26.77C509.365,406.172,498.358,406.138,498.09,413.784L498.09,413.784z M514.698,446.318  c-4.426,2.752-8.091,6.418-10.844,10.843c-2.752-4.425-6.418-8.091-10.843-10.843c4.425-2.751,8.09-6.417,10.843-10.843  C506.607,439.901,510.273,443.567,514.698,446.318z"></path>	<path display="inline" d="M63.612,452.084c16.262,0,26.77,10.508,26.77,26.769c0.256,7.612,11.262,7.646,11.53,0  c0-16.262,10.508-26.769,26.769-26.769c3.184,0,5.766-2.582,5.766-5.766c0-3.183-2.582-5.765-5.766-5.765  c-16.261,0-26.769-10.508-26.769-26.77c0-3.183-2.582-5.765-5.765-5.765s-5.765,2.582-5.765,5.765  c0,16.263-10.508,26.77-26.77,26.77C56,440.81,55.966,451.816,63.612,452.084z M96.147,435.476  c2.752,4.426,6.417,8.092,10.843,10.843c-4.426,2.752-8.09,6.418-10.843,10.843c-2.752-4.425-6.417-8.091-10.843-10.843  C89.729,443.567,93.394,439.901,96.147,435.476z"></path>	<path display="inline" d="M306.411,408.024c7.626-0.264,7.636-11.264,0-11.531c-14.315,0-25.96-11.645-25.96-25.96  c0-3.184-2.582-5.766-5.766-5.766c-3.183,0-5.765,2.582-5.765,5.766C268.921,391.207,285.738,408.024,306.411,408.024z"></path>	<path display="inline" d="M372.639,217.09c0,3.185,2.581,5.766,5.765,5.766c7.633-0.263,7.631-11.268,0-11.53  C375.22,211.325,372.639,213.907,372.639,217.09z"></path>	<path display="inline" d="M370.17,194.794c1.095,7.557,12.033,6.357,11.463-1.255c-4.174-38.131-7.582-68.979-7.582-68.979  c-0.35-3.164-3.191-5.442-6.363-5.097c-3.165,0.35-5.447,3.198-5.098,6.364C362.59,125.828,365.998,156.671,370.17,194.794z"></path></g><g display="none">	<path display="inline" d="M388.811,245.099l74.952-77.154c7.245-7.413,6.854-19.196-1.021-26.113l-25.79-22.962  c-7.752-6.917-20.069-6.569-27.308,0.959l-74.958,77.014c-7.238,7.531-6.865,19.196,1.017,26.125l8.135,7.284l-67.456,69.485  v-6.074c0-98.778-157.161-98.778-157.161,0v52.471c-29.595,16.523-49.542,47.149-49.542,82.138v173.22  c0,8.145,12.841,8.145,12.841,0v-173.22c0-27.827,14.599-52.483,36.701-67.42v108.353c0,21.25,18.166,38.622,40.401,38.622h76.482  c22.112,0,40.277-17.372,40.277-38.622V357.688c24.892,14.458,41.664,40.698,41.664,70.589v173.221c0,8.144,12.958,8.144,12.958,0  V428.276c0-36.926-22.363-68.994-54.622-84.672v-25.755l76.984-79.07l8.12,7.286C369.243,252.858,381.567,252.511,388.811,245.099z   M263.422,312.994l-32.404,33.29l-69.109,32.432c-4.063,1.474-5.715,8.149-1.267,10.946l39.759,35.328  c3.293,4.143,9.905,2.557,11.301-2.054l28.843-68.268l22.872-23.577c0,46.043,0,92.09,0.006,138.13  c0,14.47-12.328,26.251-27.319,26.251h-76.482c-15.12,0-27.437-11.782-27.437-26.251V293.679c0-82.607,131.237-82.607,131.237,0  L263.422,312.994L263.422,312.994z"></path>	<path display="inline" d="M535.022,472.872c0-22.843-16.385-42.171-38.364-47.748V276.548c0-12.515-10.793-22.852-23.874-22.852  h-44.723c-13.093,0-23.887,10.332-23.887,22.852v148.576c-22.1,5.577-38.362,24.905-38.362,47.748v113.693  c0,11.654,9.905,21.122,21.978,21.122h125.255c12.071,0,21.978-9.468,21.978-21.122h-0.002V472.872H535.022z M417.121,276.542  c0-5.709,4.829-10.444,10.935-10.444h44.721c5.973,0,10.922,4.735,10.922,10.444v146.867h-66.577V276.542L417.121,276.542z   M522.197,586.565c0,4.731-4.187,8.746-9.146,8.751H387.791c-4.957,0-9.154-4.014-9.154-8.751V472.872  c0-20.408,17.535-37.053,38.748-37.053h65.939c21.337,0,38.872,16.645,38.872,37.053V586.565z"></path>	<path display="inline" d="M428.178,448.08h-10.793c-14.097,0-25.784,11.178-25.784,24.796v103.971c0,8.144,12.831,8.144,12.831,0  V472.872c0-6.688,5.972-12.41,12.953-12.41h10.793C436.82,460.462,436.82,448.08,428.178,448.08z"></path></g><g display="none">	<g display="inline">		<path d="M50.08,363.634v223.631c0,14.253,12.493,25.805,27.903,25.805h409.254c15.411,0,27.904-11.552,27.904-25.805V363.634   c0-14.251-12.493-25.803-27.904-25.803h-29.615c1.103-2.754,1.681-5.664,1.712-8.601v-17.203   c0-14.251-12.493-25.804-27.904-25.804h-10.035c-3.629-18.437-15.886-34.447-33.484-43.737l-35.819-20.118   c-7.845-4.271-17.063-5.857-26.044-4.481l-52.738,7.904v-94.39c0-19.001-16.656-34.405-37.205-34.405   c-20.547,0-37.204,15.404-37.204,34.405v105.795c-27.259,4.75-48.866,24.011-54.999,49.027h-10.11   c-15.411,0-27.904,11.553-27.904,25.804v17.203c0.031,2.937,0.61,5.846,1.711,8.601H77.983   C62.573,337.831,50.08,349.383,50.08,363.634z M496.539,363.634v223.631c0,4.752-4.164,8.604-9.302,8.604H77.983   c-5.137,0-9.301-3.852-9.301-8.604V363.634c0-4.75,4.165-8.601,9.301-8.601h409.254   C492.375,355.033,496.539,358.884,496.539,363.634z M329.071,234.865c4.597-0.736,9.327,0.043,13.365,2.202l35.801,20.119   c11.854,6.204,20.554,16.511,24.184,28.65H268.362c3.203-5.112,4.908-10.908,4.947-16.815v-25.804L329.071,234.865z    M217.502,131.401c0-9.501,8.329-17.203,18.602-17.203c10.274,0,18.604,7.702,18.604,17.203v137.62   c-0.006,8.118-6.147,15.127-14.733,16.815h-7.739c-8.586-1.688-14.727-8.698-14.733-16.815V131.401z M198.9,255.086v13.934   c0.04,5.908,1.745,11.704,4.948,16.815h-40.926C168.502,270.609,182.045,259.033,198.9,255.086z M124.49,329.23v-17.203   c0-4.75,4.165-8.601,9.301-8.601H431.43c5.138,0,9.302,3.851,9.302,8.601v17.203c0,4.75-4.164,8.601-9.302,8.601H133.791   C128.654,337.831,124.49,333.98,124.49,329.23z"></path>		<path d="M390.086,422.397c4.274-2.636,5.428-7.978,2.577-11.93c-2.852-3.952-8.627-5.019-12.901-2.382   c-24.518,15.111-30.257,50.867-31.624,67.363H310.84c1.553-21.751,8.854-60.096,31.41-69.583c4.723-1.869,6.912-6.924,4.89-11.292   c-2.021-4.368-7.488-6.392-12.211-4.523c-0.128,0.052-0.255,0.105-0.38,0.161c-34.108,14.33-40.926,64.811-42.312,85.237h-46.507   c1.554-21.751,8.855-60.096,31.41-69.583c4.627-2.063,6.569-7.205,4.338-11.483c-2.162-4.143-7.466-5.981-12.039-4.17   c-34.107,14.33-40.926,64.811-42.311,85.237h-37.084c1.479-16.341,7.171-43.091,23.318-53.052   c4.274-2.636,5.427-7.978,2.576-11.93c-2.851-3.952-8.627-5.019-12.901-2.382c-24.518,15.111-30.257,50.867-31.624,67.363h-56.226   c-5.137,0-9.301,3.853-9.301,8.603v86.012c0,4.75,4.165,8.601,9.301,8.601h334.844c5.138,0,9.302-3.851,9.302-8.601v-86.012   c0-4.75-4.164-8.603-9.302-8.603h-83.265C368.247,459.108,373.94,432.358,390.086,422.397z M440.732,561.463H124.49v-32.857   c10.663,1.378,21.174,3.623,31.41,6.71c20.891,6.327,42.786,9.352,64.765,8.943c21.971,0.414,43.859-2.616,64.736-8.962   c19.13-5.862,39.204-8.649,59.352-8.239c20.143-0.402,40.212,2.377,59.342,8.224c11.925,3.592,24.192,6.124,36.638,7.561V561.463z    M440.732,525.482c-10.626-1.382-21.102-3.617-31.308-6.683c-20.858-6.328-42.724-9.354-64.672-8.945   c-21.962-0.412-43.841,2.618-64.709,8.964c-19.139,5.864-39.223,8.651-59.379,8.239c-20.173,0.402-40.273-2.377-59.435-8.224   c-11.96-3.585-24.262-6.111-36.74-7.542v-18.64h316.242V525.482z"></path>	</g></g><g>	<path d="M493.418,421.868h-8.139V348.91c0-3.542-2.938-6.427-6.596-6.427h-2.896v-80.966c0-2.431-1.416-4.676-3.657-5.747  c-2.24-1.092-4.925-0.845-6.912,0.638l-42.447,31.452c-1.628,1.216-2.601,3.111-2.601,5.108v49.516h-2.896  c-3.637,0-6.596,2.863-6.596,6.427v72.958h-8.139c-3.636,0-6.596,2.862-6.596,6.426V562.24c0,10.36,8.646,18.785,19.278,18.785  h65.508c10.633,0,19.279-8.425,19.279-18.785V428.275c0-3.543-2.938-6.405-6.596-6.405L493.418,421.868z M433.36,296.16  l29.257-21.689v68.031H433.36V296.16z M423.868,355.338h48.239v66.507h-48.239V355.338z M486.843,562.239  c0,3.274-2.727,5.952-6.108,5.952h-65.508c-3.361,0-6.109-2.657-6.109-5.952l0.021-127.543h77.706L486.843,562.239z   M418.202,552.929v-67.067c0-3.542,2.938-6.427,6.596-6.427c3.636,0,6.596,2.863,6.596,6.427v60.64h31.328  c3.636,0,6.596,2.863,6.596,6.427c0,3.543-2.938,6.427-6.596,6.427h-37.924C421.162,559.334,418.202,556.471,418.202,552.929  L418.202,552.929z M459.656,305.348v22.821c0,3.543-2.938,6.427-6.596,6.427c-3.636,0-6.596-2.862-6.596-6.427v-22.821  c0-3.543,2.938-6.427,6.596-6.427C456.697,298.921,459.656,301.804,459.656,305.348z M372.816,557.216h-42.108  c27.587-21.257,44.032-53.679,44.032-88.859c0-62.533-52.213-113.412-116.393-113.412c-22.767,0-44.033,6.405-62.001,17.467  l2.917-9.146l10.464-32.75l83.247-74.375c2.156-1.936,2.748-5.026,1.459-7.601c-14.164-27.765-45.894-51.411-84.915-63.233  c-39.022-11.824-78.934-9.908-106.755,5.128c-2.558,1.38-3.868,4.264-3.234,7.044l25.261,107.273L66.063,488.647  c-0.063,0.228-0.127,0.475-0.211,0.7c-0.021,0.042-0.042,0.104-0.063,0.146c-0.042,0.144-0.084,0.309-0.126,0.452  c-6.384,22.431,6.659,45.995,29.637,52.956c4.333,1.319,8.773,1.958,13.191,1.958c7.124,0,14.184-1.689,20.695-5.026  c10.21-5.231,17.8-13.883,21.456-24.449c0.021-0.062,0.042-0.103,0.063-0.164c0.021-0.042,0.021-0.083,0.042-0.145  c0.084-0.227,0.169-0.475,0.232-0.7l0.359-1.133c7.546,17.116,19.363,32.234,34.583,43.976h-42.13  c-2.072,0-4.017,0.946-5.264,2.554c-1.248,1.606-1.649,3.687-1.057,5.644c7.377,24.984,20.737,36.972,30.652,42.616  c8.899,5.066,16.721,6.221,20.357,6.364c0.211,0.021,0.444,0.041,0.655,0.041v-0.041h0.148l0.042,0.041h137.996v-0.041h0.148v0.041  c0.232,0,0.444-0.02,0.655-0.041c3.636-0.145,11.458-1.276,20.357-6.364c9.914-5.645,23.253-17.632,30.651-42.616  c0.571-1.937,0.19-4.017-1.057-5.644c-1.247-1.607-3.192-2.554-5.264-2.554L372.816,557.216z M141.934,468.356  c0,7.991,0.845,15.839,2.494,23.46l-4.291,13.471l-59.804-18.126l44.604-139.733l59.782,18.126l-6.596,20.66  C155.843,406.894,141.933,436.08,141.934,468.356L141.934,468.356z M135.93,313.009l59.782,18.126l-7.082,22.163l-59.782-18.126  L135.93,313.009z M155.421,190.455l-10.422,32.606c-1.078,3.378,0.867,6.982,4.333,8.033c0.655,0.206,1.311,0.288,1.966,0.288  c2.812,0,5.412-1.771,6.3-4.511l11.542-36.128c9.83,0.68,19.977,2.328,30.124,5.005l-12.747,39.898c0,0.02,0,0.02-0.021,0.041  l-4.038,12.646c-1.078,3.378,0.867,6.982,4.333,8.033c0.655,0.206,1.311,0.288,1.966,0.288c2.812,0,5.412-1.771,6.299-4.511  l16.785-52.586c9.915,3.419,19.216,7.662,27.714,12.544l-11.542,36.128c-1.078,3.378,0.867,6.982,4.333,8.033  c0.655,0.206,1.311,0.289,1.966,0.289c2.812,0,5.412-1.771,6.3-4.511l10.422-32.605c12.514,8.898,22.576,19.32,29.277,30.587  l-78.003,69.661L137.18,299.95l-23.655-100.497c12.05-5.582,26.424-8.589,41.898-9.001L155.421,190.455z M123.078,528.479  c-7.42,3.811-15.896,4.573-23.845,2.162c-14.015-4.242-22.788-17.28-21.942-30.958l58.05,17.59  c-2.917,4.696-7.124,8.569-12.26,11.206H123.078z M155.104,468.356c0-55.472,46.316-100.577,103.222-100.577  c56.931,0,103.222,45.129,103.222,100.577c0,37.445-20.991,71.327-54.858,88.859h-96.732  c-33.865-17.528-54.858-51.432-54.858-88.859H155.104z M327.367,601.604h-0.043H189.328h-0.042  c-1.501-0.042-23.888-1.072-36.275-31.535h210.61C351.254,600.512,328.868,601.563,327.367,601.604L327.367,601.604z   M342.566,468.356c0-45.254-37.797-82.08-84.237-82.08c-46.443,0-84.238,36.809-84.238,82.08c0,45.252,37.797,82.078,84.238,82.078  C304.792,550.435,342.566,513.606,342.566,468.356L342.566,468.356z M187.28,468.356c0-38.188,31.877-69.25,71.071-69.25  c39.192,0,71.071,31.061,71.071,69.25c-0.021,38.167-31.898,69.228-71.092,69.228C219.157,537.584,187.28,506.523,187.28,468.356z   M229.79,582.094c0-3.543,2.938-6.427,6.596-6.427h43.906c3.637,0,6.596,2.863,6.596,6.427c0,3.543-2.938,6.427-6.596,6.427  h-43.906C232.75,588.521,229.79,585.637,229.79,582.094z M228.882,473.687c-1.691,0-3.361-0.617-4.651-1.874  c-2.579-2.514-2.579-6.57,0-9.084l27.756-27.044c2.579-2.514,6.743-2.514,9.322,0c2.579,2.513,2.579,6.57,0,9.083l-27.755,27.045  C232.264,473.069,230.573,473.687,228.882,473.687L228.882,473.687z M292.425,449.69l-52.637,51.288  c-1.29,1.256-2.98,1.875-4.65,1.875c-1.691,0-3.361-0.619-4.651-1.875c-2.579-2.513-2.579-6.57,0-9.083l52.637-51.289  c2.579-2.512,6.743-2.512,9.323,0C295.004,443.119,295.004,447.197,292.425,449.69L292.425,449.69z M312.106,170.798V151.54  c0-3.542,2.938-6.427,6.596-6.427c3.636,0,6.595,2.863,6.595,6.427v19.259c0,3.542-2.938,6.427-6.595,6.427  S312.106,174.341,312.106,170.798z M332.399,190.572c0-3.542,2.938-6.427,6.596-6.427h19.765c3.637,0,6.596,2.863,6.596,6.427  c0,3.542-2.938,6.427-6.596,6.427h-19.765C335.359,196.999,332.399,194.115,332.399,190.572z M312.106,229.625v-19.258  c0-3.543,2.938-6.427,6.596-6.427c3.636,0,6.595,2.863,6.595,6.427v19.258c0,3.542-2.938,6.427-6.595,6.427  S312.106,233.167,312.106,229.625z M272.026,190.572c0-3.542,2.938-6.427,6.596-6.427h19.765c3.637,0,6.596,2.863,6.596,6.427  c0,3.542-2.938,6.427-6.596,6.427h-19.765C274.986,196.999,272.026,194.115,272.026,190.572L272.026,190.572z M507.307,126.516  v19.259c0,3.543-2.938,6.427-6.596,6.427c-3.636,0-6.596-2.863-6.596-6.427l0.021-19.259c0-3.563,2.938-6.427,6.596-6.427  C504.368,120.089,507.307,122.952,507.307,126.516L507.307,126.516z M547.387,165.548c0,3.543-2.938,6.427-6.596,6.427h-19.766  c-3.636,0-6.596-2.863-6.596-6.427c0-3.543,2.938-6.427,6.596-6.427h19.766C544.427,159.142,547.387,162.005,547.387,165.548z   M507.307,185.342v19.258c0,3.543-2.938,6.426-6.596,6.426c-3.636,0-6.596-2.863-6.596-6.426l0.021-19.258  c0-3.543,2.938-6.427,6.596-6.427C504.368,178.916,507.307,181.799,507.307,185.342L507.307,185.342z M454.058,165.548  c0-3.543,2.938-6.427,6.596-6.427h19.765c3.636,0,6.596,2.863,6.596,6.427c0,3.543-2.938,6.427-6.596,6.427h-19.765  C457.018,171.975,454.058,169.112,454.058,165.548z"></path></g></svg>